<svg version="1.2" xmlns="http://www.w3.org/2000/svg" viewBox="0 0 1280 260" width="1280" height="260"><defs><linearGradient id="P" gradientUnits="userSpaceOnUse"/><linearGradient id="g1" x2="1" href="#P" gradientTransform="matrix(1197.64,-163.2,38.718,284.128,41,226.082)"><stop stop-color="#866ee7"/><stop offset=".25" stop-color="#ea60da"/><stop offset=".5" stop-color="#ed8f57"/><stop offset=".75" stop-color="#fbd41d"/><stop offset="1" stop-color="#2cca91"/></linearGradient></defs><style>.a{fill:url(#g1)}</style><path class="a"  d="m351.4 82l2.7-2.8q0.2 3.9 31.6 33v1.3q-2.8 0-2.8 6.9l-4.1 1.3 1.3 6.9q0 2.8-4.1 2.8v1.3l2.8 2.8q0-3.2 5.6-5.4 4.1 0.8 4.1 11v2.6l-1.5 1.5 1.5 1.3v1.3q0 4.1-13.8 6.9h-26.1l-50.8 1.5q0 3.7-6.8 8.2l-1.4 5.4v1.5q7.8 6.3 11 15l20.6 16.5-1.4 1.3h15.1q6.3 0 15.1-9.5l24.7-23.3q12.3 0 12.3 10.9 0 10.8-17.8 30.2-19.5 11-38.4 12.3l-1.4-1.3v-1.4l-1.4 1.4h-4.1l-2.7-2.8 1.4-1.3q-6.9 0-6.9-2.8l1.4-1.4-2.8-4.1q-10.5 0-16.5 5.5l-16.4-13.7 5.4-6.9q-5.4 0-5.4-9.6h1.3l-1.3-1.4v-1.3l1.3-1.4v-1.4h-1.3l-4.1 2.8q-6.9 0-6.9-27.4 0-33 5.4-33l-1.3-4.1q0-5.6 6.9-5.6 0-11 28.8-28.8l15.1-4.1q15.7 0 20.6 5.5l4.1-5.5zm-57.8 46.6q0.3 4.7 11 11l1.5-1.4h45.3l1.3 1.4q8.2-5.1 12.3-12.4-11.1-21.9-30.2-21.9h-12.3q-17.7 0-28.9 23.3zm83.8 37h1.4l1.3 1.5v1.3l-1.3 1.3h-1.4l-1.4-1.3v-1.3zm6.9 2.8h1.3l6.9 8.2-1.5 1.3h-1.3l-6.9-8.2zm-96.1 15.1l-4.1 1.3v1.5l5.4 5.4h1.5l1.3-4.1q-4.1 0-4.1-4.1zm179.6-148.3q0 2.5 11.6 2.5 0 3.6 11.6 5.2 28.2 13.1 28.2 44.9v2.5q0 55.6-69.2 66.7-15.8 10.3-23.2 21.7v1.3h1.3v-2.5h1.4l9 7.7 5-1.3q29.8 14.1 41 14.1l6.5-1.3 2.5 2.5h1.4q6.7 0 10.1-25.5l5.2-6.5h7.7q2.5 0 2.5 3.8h3.8l-6.3-7.6 1.3-1.4h1.2l7.8 9-2.6 3.9-1.4-1.2h-2.5l1.3 1.2v2.6q0 31.5-14.1 38.4-19.2 9-24.4 9h-5.1l-32.1-14.1q-1.2-3.9-7.7-3.9h-9q-13.6 14.2-19.2 14.2-6.3 0-11.5-9 0-11.5 9-11.5v-2.6l-6.5-7.8 5.2-20.3h2.5l1.3 1.1h1.4q0-4.7 20.5-26.8 0-5.9 24.4-15.4l3.8 1.2v-1.2l5.2-5.1h6.3l3.8 2.5q18.1-4 18.1-20.6l3.8-3.8-1.3-6.3 1.3-1.4h1.2q-4.9-32-30.7-32h-19.2q-6.8 0-14.2 9l-1.2-1.3v2.5q5 8.5 6.4 16.7-2.8 21.8-19.2 21.8-12.3 0-16.7-20.5l2.5-2.5-2.5-3.9q0-5.4 7.7-14.1l-2.7-5.2q0-8.7 29.5-20.5 3.4-7.7 10.4-7.7h1.2l3.8 2.7q3.4-3 12.8-3.9zm81.7 7.6l10.3-5.2h2.5l42.5 5.2 16.7-1.2q1.1 4.3 7.7 7.7h3.8q0-3.9 2.7-3.9l2.5 2.5v2.7l-1.2 5 1.2 4q-4.9 3.8-11.5 3.8h-50.2q-9 9-11.6 9v7.7l-1.2 6.5 7.6 2.5v1.3l-1.3 1.3v1.2l9 1.4 5.2-5.2 5.1 3.8h11.7l9-1.2 9 9-1.3 1.2v1.4q4.2 0 9 3.8v-2.5l-1.4-3.9h1.4q9.5 5.7 15.3 21.9 7.8 17.3 7.8 32.2 0 39.7-28.3 61.7l-29.5 9h-7.8q-5.6-4.7-23.2-6.5-25.7-19.1-25.7-37.2 0-13.9 10.4-20.7h2.5l2.6 2.7 9-4v2.6l1.2-1.3h1.3q3.9 0 6.5 12.9v3.8l-2.6 14.2 19.3 12.9h3.8q25.7-5.5 32.2-16.8l6.5-9-1.3-6.3v-25.9q-1.1-13.5-21.9-33.3l-6.5 1.2h-16.6q-13.4 9-27 25.8l-1.4 1.2h-1.3q-10.2-2.3-10.2-10.2l2.5-29.7-1.3-23.1q0-20.7 7.8-34.7zm69.5 51.5h1.2l1.3 1.3v1.2l-1.3 1.3h-1.2l-1.3-1.3v-1.2zm-9 16.7h-1.3v1.3q5.1 0 5.1 5.2h2.5zm-72.1 24.5h1.3l9 10.3-1.3 1.2h-1.2l-9-10.2zm192.2-100l5.1 5.2 6.5-1.3h9.1l4 2.6 1.3-1.3 1.2 1.3q0 4-6.5 4v1.2l19.6 6.6 2.5-4 1.4 1.4h1.3l5.2-4q7.2 0 23.4 23.4 0 2.7-3.9 2.7v2.6l2.6 7.8 3.9-2.6q7.8 13 7.8 33.9v6.5q-0.9 41.5-7.8 41.5l1.4 6.5q-5.3 24.4-17 36.6-12.7 16.8-85.9 16.8 0 2.6-15.6 2.6h-7.8l-5.2-1.3-4 1.3 1.4-1.3v-1.3q-5.2-1.2-13-9v-1.4l1.3 1.4h2.5q0-6.7 2.7-6.7l1.3 1.4q1.1-6.5 10.5-6.5l11.6 1.3q9.4-4.8 13-18.3 6.7 0 7.8-3.8v-1.3h-2.5l2.5-7.8h-2.5l-5.3 3.9-1.2-1.3v-6.5l1.2-1.3v-1.3l-1.2-1.3h-1.3l1.3-6.5v-28.6l-1.3-50.9 1.3-5.1q-2.7 0-10.5-7.8-22.1 0-22.1-3.9 5.2-6.3 5.2-10.4l-1.3-1.4v-1.3l1.3-6.5-1.3-3.8h5.3l5.1-1.3q6.5 1.3 6.5 5.1h22.1l6.5-5.1h1.3l5.2 3.8q0.6-5.2 4-5.2zm18.2 20.8v2.7l2.5 3.8v1.3h-19.4q0 5.3-6.5 6.5v32.6l-4 5.2q4 1.3 4 7.8v35.2l-1.3 1.3 1.3 1.2v2.6l-6.6 6.5 1.3 6.5v1.3l-2.5 4 2.5 2.5 4-3.8 1.3 1.3-1.3 9 1.3 9.1h-1.3q0 3.6 10.3 10.5h11.8q27.8 0 37.7-16.9 0-8.6 7.8-26h1.3l-1.3-1.3 2.7-41.7q0-13.5-2.7-20.8l2.7-2.6v-1.4q-21.4-25.9-36.6-25.9v-2.7h2.7v-1.3q0-2.9-11.7-6.5zm91.8-21.6l35.5 4 1.3-1.3h1.4l9.1 4 2.7-2.7 2.6 7.8v4q0 6.2-10.5 14.4v2.7h-1.3l1.3 1.3v1.3l-1.3 1.3 17.1 25.1 4 2.6q14-14.1 15.7-27.7v-2.6q0-6.5-13.1-17.1v-5.3l1.2-1.3-1.2-1.2v-1.3l2.5-2.7 1.4 1.4h1.3q2.8-5.3 6.6-5.3 9 0.1 14.4 3.9 0-3.9 2.7-3.9h2.6l4 1.3 6.5-1.3h6.6l4 2.6 1.3-1.3 1.3 1.3-1.3 1.3v2.7q5.2 0.7 5.2 3.8l-1.4 1.4v1.3h5.3l4-2.7 1.3 1.4v2.6l-10.6 10.6h-14.4q-6.9 0.4-28.9 47.3-1.9 0-3.9 5.2-2 0-4 5.3-6.5 0.3-6.5 2.6 11.4 11.5 44.6 71 15.8 4.8 15.8 9.2l4-2.7h1.3l7.9 6.7v1.3l-1.3-1.3h-2.6q0 3.9-4 3.9l1.3 1.3v1.4l-6.6 6.5h-3.9v-2.7l1.2-1.2v-1.3h-3.8q0-4.2 5.2-10.6l-3.9-2.6h-1.3l1.3 1.3v1.3l-1.3 1.3h-1.3l-4-3.9q-10.9 3.7-23.7 19.7h-5.3q-6.3 0-17.1-6.5v-2.7q17.1-12.1 17.1-17-11.2-18.4-18.4-38.2l-5.2-3.9h-2.6q-7.7 8.7-22.4 39.4l13.1 15.8v1.3q0 11.8-13.1 11.8l-34.1 4h-6.7l-1.3 1.3h-1.3q0-4-13.1-13.1v-1.4l1.3 1.4h2.7q0-6.5 10.4-13.3h8q0-2.9 9.1-10.4 7-5.7 15.9-23.7l6.5-9.2-1.3-3.9q0-9.6 19.7-11.9 0-3.2 5.3-3.9l-1.4-4 1.4-3.9-1.4-1.3-6.6 2.6-1.3-1.3v-1.3l4-5.3q-5.3-3-17.1-23.6-6-2.7-6.6-5.3 2.6 0 2.6-5.3l1.4-1.3h1.3q-3.1-7.8-5.3-7.8l-1.2 1.3q-4.8-11.9-10.6-11.9l-2.6-5.2q-28.9 0-28.9-14.5v-2.7q0-10.5 15.7-10.5zm32.9 5.3h-6.5l2.5 2.7h1.3zm82.9 180v-1.3h1.3l4 1.3v2.7h-2.7z"/></svg>