<svg version="1.2" xmlns="http://www.w3.org/2000/svg" viewBox="0 0 743 260" width="743" height="260"><defs><linearGradient id="P" gradientUnits="userSpaceOnUse"/><linearGradient id="g1" x2="1" href="#P" gradientTransform="matrix(1087.799,-148.232,52.824,387.65,-146.361,226.829)"><stop stop-color="#866ee7"/><stop offset=".25" stop-color="#ea60da"/><stop offset=".5" stop-color="#ed8f57"/><stop offset=".75" stop-color="#fbd41d"/><stop offset="1" stop-color="#2cca91"/></linearGradient></defs><style>.a{fill:url(#g1)}</style><path class="a" d="m135.6 96l2.4-2.6q0.2 3.6 28.7 30v1.2q-2.5 0-2.5 6.2l-3.7 1.2 1.1 6.3q0 2.5-3.7 2.5v1.2l2.6 2.6q0-3 5-4.9 3.8 0.7 3.8 9.9v2.4l-1.4 1.4 1.4 1.1v1.2q0 3.8-12.6 6.3h-23.7l-46.1 1.4q0 3.3-6.2 7.4l-1.3 4.9v1.4q7.1 5.7 10 13.6l18.7 15-1.2 1.2h13.7q5.7 0 13.7-8.7l22.4-21.1q11.2 0 11.2 9.9 0 9.8-16.2 27.4-17.7 10-34.8 11.2l-1.3-1.2v-1.3l-1.3 1.3h-3.7l-2.5-2.5 1.3-1.2q-6.3 0-6.3-2.6l1.3-1.2-2.5-3.8q-9.6 0-15 5l-14.9-12.4 4.9-6.3q-4.9 0-4.9-8.7h1.2l-1.2-1.3v-1.2l1.2-1.2v-1.3h-1.2l-3.7 2.5q-6.3 0-6.3-24.8 0-30 4.9-30l-1.2-3.7q0-5.1 6.3-5.1 0-10 26.1-26.2l13.8-3.7q14.2 0 18.7 5l3.7-5zm-52.5 42.3q0.3 4.3 10 10l1.4-1.3h41.1l1.2 1.3q7.4-4.6 11.2-11.3-10.1-19.8-27.5-19.8h-11.1q-16.1 0-26.3 21.1zm76.1 33.6h1.3l1.2 1.4v1.2l-1.2 1.1h-1.3l-1.3-1.1v-1.2zm6.3 2.5h1.2l6.3 7.5-1.4 1.2h-1.2l-6.3-7.5zm-87.2 13.7l-3.8 1.2v1.4l4.9 4.9h1.4l1.2-3.8q-3.7 0-3.7-3.7zm163.1-134.7q0 2.3 10.5 2.3 0 3.3 10.6 4.7 25.6 11.9 25.6 40.8v2.3q0 50.5-62.9 60.6-14.3 9.3-21 19.7v1.1h1.1v-2.2h1.3l8.2 7 4.5-1.2q27.1 12.8 37.3 12.8l5.9-1.2 2.2 2.3h1.3q6.1 0 9.2-23.2l4.7-5.9h7q2.3 0 2.3 3.5h3.4l-5.7-6.9 1.2-1.3h1.1l7.1 8.2-2.4 3.5-1.3-1.1h-2.3l1.2 1.1v2.4q0 28.6-12.8 34.9-17.4 8.1-22.1 8.1h-4.7l-29.1-12.8q-1.1-3.5-7-3.5h-8.2q-12.4 12.9-17.4 12.9-5.8 0-10.5-8.2 0-10.4 8.2-10.4v-2.4l-5.9-7.1 4.7-18.4h2.3l1.2 1h1.2q0-4.3 18.7-24.4 0-5.3 22.1-14l3.5 1.1v-1.1l4.7-4.6h5.7l3.5 2.3q16.4-3.7 16.4-18.7l3.5-3.5-1.2-5.7 1.2-1.3h1q-4.4-29-27.8-29h-17.5q-6.2 0-12.9 8.1l-1.1-1.1v2.2q4.6 7.7 5.8 15.2-2.5 19.8-17.4 19.8-11.2 0-15.2-18.6l2.3-2.3-2.3-3.5q0-4.9 7-12.8l-2.4-4.8q0-7.9 26.8-18.6 3.1-7 9.4-7h1.1l3.5 2.5q3.1-2.8 11.6-3.6zm74.2 6.9l9.4-4.7h2.2l38.6 4.7 15.2-1.1q1 3.9 7 7h3.4q0-3.5 2.5-3.5l2.3 2.3v2.4l-1.1 4.6 1.1 3.6q-4.5 3.4-10.5 3.4h-45.6q-8.2 8.2-10.5 8.2v7l-1.1 5.9 6.9 2.3v1.2l-1.2 1.1v1.1l8.2 1.3 4.7-4.7 4.6 3.4h10.7l8.1-1.1 8.2 8.2-1.2 1.1v1.3q3.9 0 8.2 3.4v-2.2l-1.3-3.6h1.3q8.6 5.2 13.9 19.9 7.1 15.7 7.1 29.3 0 36-25.7 56l-26.8 8.2h-7.1q-5.1-4.3-21.1-5.9-23.3-17.4-23.3-33.8 0-12.6 9.4-18.8h2.3l2.4 2.4 8.2-3.6v2.4l1-1.2h1.2q3.6 0 5.9 11.7v3.4l-2.3 12.9 17.5 11.8h3.4q23.4-5 29.3-15.3l5.9-8.2-1.2-5.7v-23.5q-1-12.3-19.9-30.3l-5.9 1.1h-15.1q-12.1 8.2-24.5 23.5l-1.3 1h-1.1q-9.3-2-9.3-9.2l2.3-27-1.2-21q0-18.8 7.1-31.5zm63.1 46.8h1.1l1.2 1.2v1.1l-1.2 1.1h-1.1l-1.2-1.1v-1.1zm-8.2 15.1h-1.1v1.2q4.6 0 4.6 4.7h2.3zm-65.5 22.3h1.2l8.1 9.3-1.1 1.1h-1.1l-8.2-9.2zm174.6-90.9l4.6 4.8 5.9-1.2h8.3l3.6 2.3 1.2-1.1 1.1 1.1q0 3.7-5.9 3.7v1.1l17.8 6 2.2-3.7 1.3 1.3h1.2l4.7-3.6q6.6 0 21.3 21.2 0 2.5-3.6 2.5v2.3l2.4 7.1 3.5-2.3q7.1 11.8 7.1 30.8v5.9q-0.8 37.7-7.1 37.7l1.3 5.9q-4.8 22.1-15.4 33.2-11.6 15.3-78.1 15.3 0 2.3-14.1 2.3h-7.1l-4.7-1.2-3.7 1.2 1.3-1.2v-1.1q-4.7-1.1-11.8-8.2v-1.3l1.2 1.3h2.2q0-6.1 2.5-6.1l1.2 1.3q1-5.9 9.5-5.9l10.6 1.1q8.5-4.3 11.8-16.6 6 0 7-3.4v-1.2h-2.2l2.2-7.1h-2.2l-4.8 3.5-1.1-1.1v-5.9l1.1-1.2v-1.2l-1.1-1.2h-1.2l1.2-5.9v-26l-1.2-46.2 1.2-4.6q-2.5 0-9.6-7.1-20 0-20-3.5 4.7-5.8 4.7-9.5l-1.2-1.3v-1.1l1.2-6-1.2-3.4h4.8l4.6-1.2q6 1.2 6 4.6h20l5.9-4.6h1.2l4.7 3.5q0.6-4.8 3.7-4.8zm16.5 18.9v2.5l2.3 3.4v1.2h-17.7q0 4.8-5.9 5.9v29.6l-3.6 4.8q3.6 1.1 3.6 7v32l-1.1 1.2 1.1 1.1v2.3l-6 6 1.2 5.9v1.1l-2.2 3.7 2.2 2.2 3.7-3.4 1.1 1.2-1.1 8.1 1.1 8.3h-1.1q0 3.3 9.3 9.5h10.7q25.3 0 34.3-15.3 0-7.8 7.1-23.6h1.1l-1.1-1.2 2.4-37.9q0-12.2-2.4-18.9l2.4-2.3v-1.3q-19.4-23.5-33.2-23.5v-2.5h2.4v-1.2q0-2.6-10.6-5.9zm83.4-19.6l32.2 3.7 1.2-1.2h1.3l8.2 3.6 2.5-2.4 2.4 7v3.7q0 5.6-9.6 13v2.5h-1.2l1.2 1.2v1.2l-1.2 1.1 15.6 22.8 3.6 2.4q12.7-12.8 14.3-25.2v-2.3q0-5.9-11.9-15.6v-4.8l1.1-1.1-1.1-1.1v-1.2l2.2-2.5 1.3 1.3h1.2q2.5-4.8 6-4.8 8.2 0.1 13.1 3.5 0-3.5 2.4-3.5h2.4l3.6 1.2 5.9-1.2h6l3.6 2.4 1.2-1.2 1.2 1.2-1.2 1.1v2.5q4.7 0.6 4.7 3.4l-1.2 1.3v1.2h4.8l3.6-2.5 1.2 1.3v2.4l-9.6 9.6h-13.1q-6.3 0.4-26.3 43-1.7 0-3.5 4.7-1.8 0-3.6 4.8-5.9 0.3-5.9 2.4 10.3 10.4 40.5 64.4 14.3 4.4 14.3 8.4l3.7-2.5h1.1l7.2 6.1v1.2l-1.2-1.2h-2.3q0 3.6-3.7 3.6l1.2 1.2v1.2l-6 5.9h-3.5v-2.4l1.1-1.1v-1.2h-3.5q0-3.8 4.7-9.6l-3.5-2.4h-1.2l1.2 1.2v1.2l-1.2 1.2h-1.2l-3.6-3.6q-9.9 3.4-21.5 17.9h-4.8q-5.8 0-15.6-5.9v-2.4q15.6-11 15.6-15.5-10.2-16.7-16.7-34.7l-4.8-3.5h-2.3q-7 7.9-20.4 35.8l11.9 14.3v1.2q0 10.7-11.9 10.7l-31 3.6h-6l-1.2 1.2h-1.2q0-3.6-11.9-11.9v-1.2l1.2 1.2h2.4q0-5.9 9.5-12.1h7.2q0-2.6 8.3-9.4 6.4-5.2 14.5-21.5l5.9-8.4-1.2-3.5q0-8.7 17.9-10.8 0-2.9 4.8-3.6l-1.3-3.6 1.3-3.5-1.3-1.2-6 2.3-1.2-1.1v-1.2l3.7-4.8q-4.8-2.8-15.6-21.5-5.4-2.4-6-4.8 2.4 0 2.4-4.8l1.3-1.2h1.2q-2.9-7.1-4.9-7.1l-1 1.2q-4.4-10.8-9.7-10.8l-2.3-4.7q-26.3 0-26.3-13.2v-2.4q0-9.6 14.3-9.6zm29.9 4.8h-5.9l2.2 2.5h1.2zm75.3 163.5v-1.2h1.2l3.6 1.2v2.4h-2.4z"/></svg>