<svg xmlns="http://www.w3.org/2000/svg" height="20px" viewBox="0 -960 960 960" width="20px"><path d="M237-285q54-38 115.5-56.5T480-360q66 0 127.5 18.5T723-285q35-41 52-91t17-104q0-130-91-221t-221-91q-130 0-221 91t-91 221q0 54 17 104t52 91Zm141-165q-42-42-42-102t42-102q42-42 102-42t102 42q42 42 42 102t-42 102q-42 42-102 42t-102-42ZM480-96q-79 0-149-30t-122.5-82.5Q156-261 126-331T96-480q0-80 30-149.5t82.5-122Q261-804 331-834t149-30q80 0 149.5 30t122 82.5Q804-699 834-629.5T864-480q0 79-30 149t-82.5 122.5Q699-156 629.5-126T480-96Zm100-88.5q48-16.5 90-48.5-43-27-91-41t-99-14q-51 0-99.5 13.5T290-233q42 32 90 48.5T480-168q52 0 100-16.5ZM531-501q21-21 21-51t-21-51q-21-21-51-21t-51 21q-21 21-21 51t21 51q21 21 51 21t51-21Zm-51-51Zm0 319Z"/></svg>