<svg xmlns="http://www.w3.org/2000/svg" height="20px" viewBox="0 -960 960 960" width="20px"><path d="M216-144q-29.7 0-50.85-21.15Q144-186.3 144-216v-528q0-29.7 21.15-50.85Q186.3-816 216-816h171q8-31 33.5-51.5T480-888q34 0 59.5 20.5T573-816h171q29.7 0 50.85 21.15Q816-773.7 816-744v528q0 29.7-21.15 50.85Q773.7-144 744-144H216Zm0-72h528v-528H216v528Zm108-72h216q15.3 0 25.65-10.29Q576-308.58 576-323.79t-10.35-25.71Q555.3-360 540-360H324q-15.3 0-25.65 10.29Q288-339.42 288-324.21t10.35 25.71Q308.7-288 324-288Zm0-156h312q15.3 0 25.65-10.29Q672-464.58 672-479.79t-10.35-25.71Q651.3-516 636-516H324q-15.3 0-25.65 10.29Q288-495.42 288-480.21t10.35 25.71Q308.7-444 324-444Zm0-156h312q15.3 0 25.65-10.29Q672-620.58 672-635.79t-10.35-25.71Q651.3-672 636-672H324q-15.3 0-25.65 10.29Q288-651.42 288-636.21t10.35 25.71Q308.7-600 324-600Zm173-175q7-7 7-17t-7-17q-7-7-17-7t-17 7q-7 7-7 17t7 17q7 7 17 7t17-7ZM216-216v-528 528Z"/></svg>