<svg xmlns="http://www.w3.org/2000/svg" height="20px" viewBox="0 -960 960 960" width="20px"><path d="M480-576q-47 0-71.5 15T384-528v126q0 8 5 13t13 5h30v96q0 20.16 13.89 34.08 13.88 13.92 34 13.92Q500-240 514-253.92T528-288v-96h30q8 0 13-5t5-13v-126q0-18-24.5-33T480-576ZM331.07-126.22q-70.22-30.22-122.65-82.5Q156-261 126-331.18q-30-70.19-30-149.5 0-79.32 30.21-148.85 30.21-69.52 82.49-121.79 52.27-52.26 122.28-82.47Q401-864 480.35-864q79.35 0 149.08 30.22 69.73 30.22 122.15 82.5T834-629.31q30 69.7 30 149 0 79.31-30.21 149.33-30.21 70.01-82.47 122.28-52.27 52.28-121.79 82.49Q560-96 480.64-96q-79.35 0-149.57-30.22ZM701-259.23q91-91.23 91-221Q792-610 700.77-701t-221-91Q350-792 259-700.77t-91 221Q168-350 259.23-259t221 91Q610-168 701-259.23ZM514-638q14-14 14-34t-14-34q-14-14-34-14t-34 14q-14 14-14 34t14 34q14 14 34 14t34-14Zm-34 158Z"/></svg>