<svg xmlns="http://www.w3.org/2000/svg" height="20px" viewBox="0 -960 960 960" width="20px"><path d="M505.5-298.35Q516-308.7 516-324v-168q0-15.3-10.29-25.65Q495.42-528 480.21-528t-25.71 10.35Q444-507.3 444-492v168q0 15.3 10.29 25.65Q464.58-288 479.79-288t25.71-10.35Zm0-311.94q10.5-10.29 10.5-25.5t-10.29-25.71q-10.29-10.5-25.5-10.5t-25.71 10.29q-10.5 10.29-10.5 25.5t10.29 25.71q10.29 10.5 25.5 10.5t25.71-10.29ZM480.28-96Q401-96 331-126t-122.5-82.5Q156-261 126-330.96t-30-149.5Q96-560 126-629.5q30-69.5 82.5-122T330.96-834q69.96-30 149.5-30t149.04 30q69.5 30 122 82.5T834-629.28q30 69.73 30 149Q864-401 834-331t-82.5 122.5Q699-156 629.28-126q-69.73 30-149 30Zm-.28-72q130 0 221-91t91-221q0-130-91-221t-221-91q-130 0-221 91t-91 221q0 130 91 221t221 91Zm0-312Z"/></svg>