<svg xmlns="http://www.w3.org/2000/svg" height="20px" viewBox="0 -960 960 960" width="20px"><path d="M349.5-298.29q10.5-10.29 10.5-25.5t-10.29-25.71q-10.29-10.5-25.5-10.5t-25.71 10.29q-10.5 10.29-10.5 25.5t10.29 25.71q10.29 10.5 25.5 10.5t25.71-10.29Zm0-156q10.5-10.29 10.5-25.5t-10.29-25.71q-10.29-10.5-25.5-10.5t-25.71 10.29q-10.5 10.29-10.5 25.5t10.29 25.71q10.29 10.5 25.5 10.5t25.71-10.29Zm0-156q10.5-10.29 10.5-25.5t-10.29-25.71q-10.29-10.5-25.5-10.5t-25.71 10.29q-10.5 10.29-10.5 25.5t10.29 25.71q10.29 10.5 25.5 10.5t25.71-10.29ZM468-288h168q15.3 0 25.65-10.29Q672-308.58 672-323.79t-10.35-25.71Q651.3-360 636-360H468q-15.3 0-25.65 10.29Q432-339.42 432-324.21t10.35 25.71Q452.7-288 468-288Zm0-156h168q15.3 0 25.65-10.29Q672-464.58 672-479.79t-10.35-25.71Q651.3-516 636-516H468q-15.3 0-25.65 10.29Q432-495.42 432-480.21t10.35 25.71Q452.7-444 468-444Zm0-156h168q15.3 0 25.65-10.29Q672-620.58 672-635.79t-10.35-25.71Q651.3-672 636-672H468q-15.3 0-25.65 10.29Q432-651.42 432-636.21t10.35 25.71Q452.7-600 468-600ZM216-144q-29.7 0-50.85-21.15Q144-186.3 144-216v-528q0-29.7 21.15-50.85Q186.3-816 216-816h528q29.7 0 50.85 21.15Q816-773.7 816-744v528q0 29.7-21.15 50.85Q773.7-144 744-144H216Zm0-72h528v-528H216v528Zm0-528v528-528Z"/></svg>