<svg class="icon" xmlns="http://www.w3.org/2000/svg" height="20px" viewBox="0 -960 960 960" width="20px"><path d="M480-96q-79 0-149-30t-122.5-82.5Q156-261 126-331T96-480q0-80 30.5-149.5t84-122Q264-804 335.5-834T488-864q78 0 146.5 27T754-763q51 47 80.5 110T864-518q0 96-67 163t-163 67h-68q-8 0-14 5t-6 13q0 15 15 25t15 53q0 37-27 66.5T480-96Zm0-384Zm-173.5 18.5Q324-479 324-504t-17.5-42.5Q289-564 264-564t-42.5 17.5Q204-529 204-504t17.5 42.5Q239-444 264-444t42.5-17.5Zm120-144Q444-623 444-648t-17.5-42.5Q409-708 384-708t-42.5 17.5Q324-673 324-648t17.5 42.5Q359-588 384-588t42.5-17.5Zm192 0Q636-623 636-648t-17.5-42.5Q601-708 576-708t-42.5 17.5Q516-673 516-648t17.5 42.5Q551-588 576-588t42.5-17.5Zm120 144Q756-479 756-504t-17.5-42.5Q721-564 696-564t-42.5 17.5Q636-529 636-504t17.5 42.5Q671-444 696-444t42.5-17.5ZM480-168q11 0 17.5-8.5T504-192q0-16-15-28t-15-50q0-38 26.5-64t64.5-26h69q66 0 112-46t46-112q0-115-88.5-194.5T488-792q-134 0-227 91t-93 221q0 130 91 221t221 91Z"/></svg>