<svg xmlns="http://www.w3.org/2000/svg" height="20px" viewBox="0 -960 960 960" width="20px"><path d="M480-300q15 0 25.5-10.5T516-336q0-15-10.5-25.5T480-372q-15 0-25.5 10.5T444-336q0 15 10.5 25.5T480-300Zm25.5-142.5Q516-453 516-468v-168q0-15-10.5-25.5T480-672q-15 0-25.5 10.5T444-636v168q0 15 10.5 25.5T480-432q15 0 25.5-10.5ZM371-144q-14 0-27-5t-24-16L165-321q-10-10-15.5-23.5T144-372v-217q0-14 5-27t16-24l155-155q11-11 24-16t27-5h218q14 0 27 5t24 16l155 155q11 11 16 24t5 27v218q0 14-5 27t-16 24L639-165q-10 10-23.5 15.5T588-144H371Zm0-72h218l155-155v-218L588-744H371L216-589v218l155 155Zm109-264Z"/></svg>