<svg class="icon" xmlns="http://www.w3.org/2000/svg" height="20px" viewBox="0 -960 960 960" width="20px"><path d="m480-246 85.91-85.91Q577-343 591.5-343t25.5 11q11 11 11 25.5t-10.93 25.43L505-169q-5.4 5-11.7 7.5-6.3 2.5-13.5 2.5t-13.5-2.5Q460-164 455-169L342.93-281.07Q332-292 332.5-306.5T344-332q11-11 25.5-11t25.47 11.09L480-246Zm0-468-85.91 85.91Q383-617 368.5-617T343-628q-11-11-11-25.5t10.93-25.43L455-791q5.4-5 11.7-7.5 6.3-2.5 13.5-2.5t13.5 2.5Q500-796 505-791l112.07 112.07Q628-668 628-654t-11 25q-11 11-25.5 11t-25.59-10.97L480-714Z"/></svg>