<svg xmlns="http://www.w3.org/2000/svg" height="20px" viewBox="0 -960 960 960" width="20px"><path d="M111.91-144q-10.91 0-19.13-4.95Q84.57-153.9 80-162q-5-8-4.5-18t5.5-19l368-614q5-9 13.53-13 8.52-4 17.5-4 8.97 0 17.47 4 8.5 4 13.5 13l368 614q5 9 5.5 19t-4.5 18q-5 8-13 13t-18.91 5H111.91ZM175-216h610L480-724 175-216Zm330.5-58.29q10.5-10.29 10.5-25.5t-10.29-25.71q-10.29-10.5-25.5-10.5t-25.71 10.29q-10.5 10.29-10.5 25.5t10.29 25.71q10.29 10.5 25.5 10.5t25.71-10.29Zm0-120.06Q516-404.7 516-420v-120q0-15.3-10.29-25.65Q495.42-576 480.21-576t-25.71 10.35Q444-555.3 444-540v120q0 15.3 10.29 25.65Q464.58-384 479.79-384t25.71-10.35ZM480-470Z"/></svg>